<mxfile host="Electron" modified="2024-03-13T18:48:40.833Z" agent="Mozilla/5.0 (Macintosh; Intel Mac OS X 10_15_7) AppleWebKit/537.36 (KHTML, like Gecko) draw.io/23.0.2 Chrome/120.0.6099.109 Electron/28.1.0 Safari/537.36" etag="gdz7FIi1az8tm61Aghdp" version="23.0.2" type="device">
  <diagram id="C5RBs43oDa-KdzZeNtuy" name="Page-1">
    <mxGraphModel dx="1431" dy="821" grid="1" gridSize="10" guides="1" tooltips="1" connect="1" arrows="1" fold="1" page="1" pageScale="1" pageWidth="827" pageHeight="1169" math="0" shadow="0">
      <root>
        <mxCell id="WIyWlLk6GJQsqaUBKTNV-0" />
        <mxCell id="WIyWlLk6GJQsqaUBKTNV-1" parent="WIyWlLk6GJQsqaUBKTNV-0" />
        <mxCell id="xj3yiNgmEAzqHMa_JIX8-0" value="spillbrett" style="swimlane;fontStyle=1;align=center;verticalAlign=top;childLayout=stackLayout;horizontal=1;startSize=26;horizontalStack=0;resizeParent=1;resizeParentMax=0;resizeLast=0;collapsible=1;marginBottom=0;whiteSpace=wrap;html=1;" vertex="1" parent="WIyWlLk6GJQsqaUBKTNV-1">
          <mxGeometry x="960" y="70" width="160" height="120" as="geometry" />
        </mxCell>
        <mxCell id="xj3yiNgmEAzqHMa_JIX8-1" value="screen:&amp;nbsp; surface" style="text;strokeColor=none;fillColor=none;align=left;verticalAlign=top;spacingLeft=4;spacingRight=4;overflow=hidden;rotatable=0;points=[[0,0.5],[1,0.5]];portConstraint=eastwest;whiteSpace=wrap;html=1;" vertex="1" parent="xj3yiNgmEAzqHMa_JIX8-0">
          <mxGeometry y="26" width="160" height="26" as="geometry" />
        </mxCell>
        <mxCell id="xj3yiNgmEAzqHMa_JIX8-2" value="" style="line;strokeWidth=1;fillColor=none;align=left;verticalAlign=middle;spacingTop=-1;spacingLeft=3;spacingRight=3;rotatable=0;labelPosition=right;points=[];portConstraint=eastwest;strokeColor=inherit;" vertex="1" parent="xj3yiNgmEAzqHMa_JIX8-0">
          <mxGeometry y="52" width="160" height="8" as="geometry" />
        </mxCell>
        <mxCell id="xj3yiNgmEAzqHMa_JIX8-3" value="new()&lt;br&gt;run()&lt;br&gt;update()" style="text;strokeColor=none;fillColor=none;align=left;verticalAlign=top;spacingLeft=4;spacingRight=4;overflow=hidden;rotatable=0;points=[[0,0.5],[1,0.5]];portConstraint=eastwest;whiteSpace=wrap;html=1;" vertex="1" parent="xj3yiNgmEAzqHMa_JIX8-0">
          <mxGeometry y="60" width="160" height="60" as="geometry" />
        </mxCell>
        <mxCell id="xj3yiNgmEAzqHMa_JIX8-24" style="edgeStyle=orthogonalEdgeStyle;rounded=0;orthogonalLoop=1;jettySize=auto;html=1;exitX=0.5;exitY=0;exitDx=0;exitDy=0;entryX=0.5;entryY=1;entryDx=0;entryDy=0;endArrow=none;endFill=0;" edge="1" parent="WIyWlLk6GJQsqaUBKTNV-1" source="xj3yiNgmEAzqHMa_JIX8-4" target="xj3yiNgmEAzqHMa_JIX8-0">
          <mxGeometry relative="1" as="geometry" />
        </mxCell>
        <mxCell id="xj3yiNgmEAzqHMa_JIX8-4" value="Vector" style="swimlane;fontStyle=1;align=center;verticalAlign=top;childLayout=stackLayout;horizontal=1;startSize=26;horizontalStack=0;resizeParent=1;resizeParentMax=0;resizeLast=0;collapsible=1;marginBottom=0;whiteSpace=wrap;html=1;" vertex="1" parent="WIyWlLk6GJQsqaUBKTNV-1">
          <mxGeometry x="560" y="380" width="160" height="220" as="geometry" />
        </mxCell>
        <mxCell id="xj3yiNgmEAzqHMa_JIX8-5" value="x: float&lt;br&gt;y: float" style="text;strokeColor=none;fillColor=none;align=left;verticalAlign=top;spacingLeft=4;spacingRight=4;overflow=hidden;rotatable=0;points=[[0,0.5],[1,0.5]];portConstraint=eastwest;whiteSpace=wrap;html=1;" vertex="1" parent="xj3yiNgmEAzqHMa_JIX8-4">
          <mxGeometry y="26" width="160" height="44" as="geometry" />
        </mxCell>
        <mxCell id="xj3yiNgmEAzqHMa_JIX8-6" value="" style="line;strokeWidth=1;fillColor=none;align=left;verticalAlign=middle;spacingTop=-1;spacingLeft=3;spacingRight=3;rotatable=0;labelPosition=right;points=[];portConstraint=eastwest;strokeColor=inherit;" vertex="1" parent="xj3yiNgmEAzqHMa_JIX8-4">
          <mxGeometry y="70" width="160" height="8" as="geometry" />
        </mxCell>
        <mxCell id="xj3yiNgmEAzqHMa_JIX8-7" value="add(vector): Obj&lt;br&gt;subtr(vector): Obj&lt;br&gt;mag(): float&lt;br&gt;mult(coefficient): Obj&lt;br&gt;normal(): Obj&lt;br&gt;unit(): Obj&lt;br&gt;dot(vector1, vector2): float&lt;br&gt;draw_vec(screen, x, y, n, color)&lt;br&gt;" style="text;strokeColor=none;fillColor=none;align=left;verticalAlign=top;spacingLeft=4;spacingRight=4;overflow=hidden;rotatable=0;points=[[0,0.5],[1,0.5]];portConstraint=eastwest;whiteSpace=wrap;html=1;" vertex="1" parent="xj3yiNgmEAzqHMa_JIX8-4">
          <mxGeometry y="78" width="160" height="142" as="geometry" />
        </mxCell>
        <mxCell id="xj3yiNgmEAzqHMa_JIX8-25" style="edgeStyle=orthogonalEdgeStyle;rounded=0;orthogonalLoop=1;jettySize=auto;html=1;exitX=0.5;exitY=0;exitDx=0;exitDy=0;endArrow=none;endFill=0;" edge="1" parent="WIyWlLk6GJQsqaUBKTNV-1" source="xj3yiNgmEAzqHMa_JIX8-8">
          <mxGeometry relative="1" as="geometry">
            <mxPoint x="1040" y="190" as="targetPoint" />
          </mxGeometry>
        </mxCell>
        <mxCell id="xj3yiNgmEAzqHMa_JIX8-8" value="Ball" style="swimlane;fontStyle=1;align=center;verticalAlign=top;childLayout=stackLayout;horizontal=1;startSize=26;horizontalStack=0;resizeParent=1;resizeParentMax=0;resizeLast=0;collapsible=1;marginBottom=0;whiteSpace=wrap;html=1;" vertex="1" parent="WIyWlLk6GJQsqaUBKTNV-1">
          <mxGeometry x="760" y="380" width="160" height="160" as="geometry" />
        </mxCell>
        <mxCell id="xj3yiNgmEAzqHMa_JIX8-9" value="surface_object: Surface&lt;br&gt;r: float&lt;br&gt;m: float&lt;br&gt;farge: tuple" style="text;strokeColor=none;fillColor=none;align=left;verticalAlign=top;spacingLeft=4;spacingRight=4;overflow=hidden;rotatable=0;points=[[0,0.5],[1,0.5]];portConstraint=eastwest;whiteSpace=wrap;html=1;" vertex="1" parent="xj3yiNgmEAzqHMa_JIX8-8">
          <mxGeometry y="26" width="160" height="74" as="geometry" />
        </mxCell>
        <mxCell id="xj3yiNgmEAzqHMa_JIX8-10" value="" style="line;strokeWidth=1;fillColor=none;align=left;verticalAlign=middle;spacingTop=-1;spacingLeft=3;spacingRight=3;rotatable=0;labelPosition=right;points=[];portConstraint=eastwest;strokeColor=inherit;" vertex="1" parent="xj3yiNgmEAzqHMa_JIX8-8">
          <mxGeometry y="100" width="160" height="8" as="geometry" />
        </mxCell>
        <mxCell id="xj3yiNgmEAzqHMa_JIX8-11" value="draw()&lt;br&gt;display()&lt;br&gt;reposition()" style="text;strokeColor=none;fillColor=none;align=left;verticalAlign=top;spacingLeft=4;spacingRight=4;overflow=hidden;rotatable=0;points=[[0,0.5],[1,0.5]];portConstraint=eastwest;whiteSpace=wrap;html=1;" vertex="1" parent="xj3yiNgmEAzqHMa_JIX8-8">
          <mxGeometry y="108" width="160" height="52" as="geometry" />
        </mxCell>
        <mxCell id="xj3yiNgmEAzqHMa_JIX8-26" style="edgeStyle=orthogonalEdgeStyle;rounded=0;orthogonalLoop=1;jettySize=auto;html=1;exitX=0.5;exitY=0;exitDx=0;exitDy=0;endArrow=none;endFill=0;" edge="1" parent="WIyWlLk6GJQsqaUBKTNV-1" source="xj3yiNgmEAzqHMa_JIX8-12">
          <mxGeometry relative="1" as="geometry">
            <mxPoint x="1040" y="190" as="targetPoint" />
          </mxGeometry>
        </mxCell>
        <mxCell id="xj3yiNgmEAzqHMa_JIX8-12" value="Wall" style="swimlane;fontStyle=1;align=center;verticalAlign=top;childLayout=stackLayout;horizontal=1;startSize=26;horizontalStack=0;resizeParent=1;resizeParentMax=0;resizeLast=0;collapsible=1;marginBottom=0;whiteSpace=wrap;html=1;" vertex="1" parent="WIyWlLk6GJQsqaUBKTNV-1">
          <mxGeometry x="950" y="380" width="160" height="160" as="geometry" />
        </mxCell>
        <mxCell id="xj3yiNgmEAzqHMa_JIX8-13" value="surface_object: Surface&lt;br&gt;x1: float&lt;br&gt;y1: float&lt;br&gt;x2: float&lt;br&gt;y2: float" style="text;strokeColor=none;fillColor=none;align=left;verticalAlign=top;spacingLeft=4;spacingRight=4;overflow=hidden;rotatable=0;points=[[0,0.5],[1,0.5]];portConstraint=eastwest;whiteSpace=wrap;html=1;" vertex="1" parent="xj3yiNgmEAzqHMa_JIX8-12">
          <mxGeometry y="26" width="160" height="84" as="geometry" />
        </mxCell>
        <mxCell id="xj3yiNgmEAzqHMa_JIX8-14" value="" style="line;strokeWidth=1;fillColor=none;align=left;verticalAlign=middle;spacingTop=-1;spacingLeft=3;spacingRight=3;rotatable=0;labelPosition=right;points=[];portConstraint=eastwest;strokeColor=inherit;" vertex="1" parent="xj3yiNgmEAzqHMa_JIX8-12">
          <mxGeometry y="110" width="160" height="8" as="geometry" />
        </mxCell>
        <mxCell id="xj3yiNgmEAzqHMa_JIX8-15" value="draw_wall()&lt;br&gt;wall_unit()" style="text;strokeColor=none;fillColor=none;align=left;verticalAlign=top;spacingLeft=4;spacingRight=4;overflow=hidden;rotatable=0;points=[[0,0.5],[1,0.5]];portConstraint=eastwest;whiteSpace=wrap;html=1;" vertex="1" parent="xj3yiNgmEAzqHMa_JIX8-12">
          <mxGeometry y="118" width="160" height="42" as="geometry" />
        </mxCell>
        <mxCell id="xj3yiNgmEAzqHMa_JIX8-27" style="edgeStyle=orthogonalEdgeStyle;rounded=0;orthogonalLoop=1;jettySize=auto;html=1;exitX=0.5;exitY=0;exitDx=0;exitDy=0;endArrow=none;endFill=0;" edge="1" parent="WIyWlLk6GJQsqaUBKTNV-1" source="xj3yiNgmEAzqHMa_JIX8-29">
          <mxGeometry relative="1" as="geometry">
            <mxPoint x="1040" y="200" as="targetPoint" />
            <Array as="points" />
          </mxGeometry>
        </mxCell>
        <mxCell id="xj3yiNgmEAzqHMa_JIX8-16" value="Stick" style="swimlane;fontStyle=1;align=center;verticalAlign=top;childLayout=stackLayout;horizontal=1;startSize=26;horizontalStack=0;resizeParent=1;resizeParentMax=0;resizeLast=0;collapsible=1;marginBottom=0;whiteSpace=wrap;html=1;" vertex="1" parent="WIyWlLk6GJQsqaUBKTNV-1">
          <mxGeometry x="1161" y="380" width="160" height="120" as="geometry" />
        </mxCell>
        <mxCell id="xj3yiNgmEAzqHMa_JIX8-17" value="surface_object: Surface" style="text;strokeColor=none;fillColor=none;align=left;verticalAlign=top;spacingLeft=4;spacingRight=4;overflow=hidden;rotatable=0;points=[[0,0.5],[1,0.5]];portConstraint=eastwest;whiteSpace=wrap;html=1;" vertex="1" parent="xj3yiNgmEAzqHMa_JIX8-16">
          <mxGeometry y="26" width="160" height="26" as="geometry" />
        </mxCell>
        <mxCell id="xj3yiNgmEAzqHMa_JIX8-18" value="" style="line;strokeWidth=1;fillColor=none;align=left;verticalAlign=middle;spacingTop=-1;spacingLeft=3;spacingRight=3;rotatable=0;labelPosition=right;points=[];portConstraint=eastwest;strokeColor=inherit;" vertex="1" parent="xj3yiNgmEAzqHMa_JIX8-16">
          <mxGeometry y="52" width="160" height="8" as="geometry" />
        </mxCell>
        <mxCell id="xj3yiNgmEAzqHMa_JIX8-19" value="draw_stick()&lt;br&gt;run()&lt;br&gt;update()" style="text;strokeColor=none;fillColor=none;align=left;verticalAlign=top;spacingLeft=4;spacingRight=4;overflow=hidden;rotatable=0;points=[[0,0.5],[1,0.5]];portConstraint=eastwest;whiteSpace=wrap;html=1;" vertex="1" parent="xj3yiNgmEAzqHMa_JIX8-16">
          <mxGeometry y="60" width="160" height="60" as="geometry" />
        </mxCell>
        <mxCell id="xj3yiNgmEAzqHMa_JIX8-28" style="edgeStyle=orthogonalEdgeStyle;rounded=0;orthogonalLoop=1;jettySize=auto;html=1;exitX=0.5;exitY=0;exitDx=0;exitDy=0;endArrow=none;endFill=0;" edge="1" parent="WIyWlLk6GJQsqaUBKTNV-1" source="xj3yiNgmEAzqHMa_JIX8-29">
          <mxGeometry relative="1" as="geometry">
            <mxPoint x="1040" y="190" as="targetPoint" />
          </mxGeometry>
        </mxCell>
        <mxCell id="xj3yiNgmEAzqHMa_JIX8-20" value="Hole" style="swimlane;fontStyle=1;align=center;verticalAlign=top;childLayout=stackLayout;horizontal=1;startSize=26;horizontalStack=0;resizeParent=1;resizeParentMax=0;resizeLast=0;collapsible=1;marginBottom=0;whiteSpace=wrap;html=1;" vertex="1" parent="WIyWlLk6GJQsqaUBKTNV-1">
          <mxGeometry x="1360" y="380" width="160" height="140" as="geometry" />
        </mxCell>
        <mxCell id="xj3yiNgmEAzqHMa_JIX8-21" value="surface_object: Screen&lt;br&gt;x: float&lt;br&gt;y: float&lt;br&gt;r: float" style="text;strokeColor=none;fillColor=none;align=left;verticalAlign=top;spacingLeft=4;spacingRight=4;overflow=hidden;rotatable=0;points=[[0,0.5],[1,0.5]];portConstraint=eastwest;whiteSpace=wrap;html=1;" vertex="1" parent="xj3yiNgmEAzqHMa_JIX8-20">
          <mxGeometry y="26" width="160" height="74" as="geometry" />
        </mxCell>
        <mxCell id="xj3yiNgmEAzqHMa_JIX8-22" value="" style="line;strokeWidth=1;fillColor=none;align=left;verticalAlign=middle;spacingTop=-1;spacingLeft=3;spacingRight=3;rotatable=0;labelPosition=right;points=[];portConstraint=eastwest;strokeColor=inherit;" vertex="1" parent="xj3yiNgmEAzqHMa_JIX8-20">
          <mxGeometry y="100" width="160" height="8" as="geometry" />
        </mxCell>
        <mxCell id="xj3yiNgmEAzqHMa_JIX8-23" value="draw_hole()" style="text;strokeColor=none;fillColor=none;align=left;verticalAlign=top;spacingLeft=4;spacingRight=4;overflow=hidden;rotatable=0;points=[[0,0.5],[1,0.5]];portConstraint=eastwest;whiteSpace=wrap;html=1;" vertex="1" parent="xj3yiNgmEAzqHMa_JIX8-20">
          <mxGeometry y="108" width="160" height="32" as="geometry" />
        </mxCell>
        <mxCell id="xj3yiNgmEAzqHMa_JIX8-30" value="" style="edgeStyle=orthogonalEdgeStyle;rounded=0;orthogonalLoop=1;jettySize=auto;html=1;exitX=0.5;exitY=0;exitDx=0;exitDy=0;endArrow=none;endFill=0;" edge="1" parent="WIyWlLk6GJQsqaUBKTNV-1" source="xj3yiNgmEAzqHMa_JIX8-20" target="xj3yiNgmEAzqHMa_JIX8-29">
          <mxGeometry relative="1" as="geometry">
            <mxPoint x="1040" y="190" as="targetPoint" />
            <mxPoint x="1440" y="380" as="sourcePoint" />
            <Array as="points">
              <mxPoint x="1440" y="284" />
              <mxPoint x="1040" y="284" />
            </Array>
          </mxGeometry>
        </mxCell>
        <mxCell id="xj3yiNgmEAzqHMa_JIX8-31" value="" style="edgeStyle=orthogonalEdgeStyle;rounded=0;orthogonalLoop=1;jettySize=auto;html=1;exitX=0.5;exitY=0;exitDx=0;exitDy=0;endArrow=none;endFill=0;" edge="1" parent="WIyWlLk6GJQsqaUBKTNV-1" source="xj3yiNgmEAzqHMa_JIX8-16" target="xj3yiNgmEAzqHMa_JIX8-29">
          <mxGeometry relative="1" as="geometry">
            <mxPoint x="1040" y="200" as="targetPoint" />
            <mxPoint x="1241" y="380" as="sourcePoint" />
            <Array as="points">
              <mxPoint x="1241" y="284" />
              <mxPoint x="1040" y="284" />
            </Array>
          </mxGeometry>
        </mxCell>
        <mxCell id="xj3yiNgmEAzqHMa_JIX8-29" value="" style="rhombus;whiteSpace=wrap;html=1;strokeColor=default;" vertex="1" parent="WIyWlLk6GJQsqaUBKTNV-1">
          <mxGeometry x="1030" y="190" width="20" height="50" as="geometry" />
        </mxCell>
      </root>
    </mxGraphModel>
  </diagram>
</mxfile>
